# Blender v2.74 (sub 0) OBJ File: ''
# www.blender.org
mtllib cylinderFace.mtl
o Cylinder
v 13.121218 40.071789 15.339198
v 12.996361 0.072002 15.370502
v 15.703545 0.061325 12.534527
v 15.828403 40.061119 12.503205
v 17.805433 0.052177 9.224880
v 17.930309 40.051975 9.193558
v 19.221272 0.044891 5.568763
v 19.346148 40.044685 5.537459
v 19.896626 0.039764 1.706687
v 20.021482 40.039551 1.675383
v 19.805552 0.036980 -2.212927
v 19.930429 40.036774 -2.244250
v 18.951571 0.036633 -6.039477
v 19.076424 40.036446 -6.070800
v 17.367456 0.038792 -9.625895
v 17.492313 40.038582 -9.657217
v 15.114107 0.043289 -12.834351
v 15.238980 40.043106 -12.865673
v 12.278133 0.050030 -15.541556
v 12.403012 40.049824 -15.572879
v 8.968507 0.058723 -17.643476
v 9.093365 40.058510 -17.674782
v 5.312413 0.069019 -19.059317
v 5.437271 40.068810 -19.090641
v 1.450340 0.080559 -19.734682
v 1.575218 40.080353 -19.766006
v -2.469258 0.092869 -19.643639
v -2.344399 40.092655 -19.674940
v -6.295793 0.105476 -18.789635
v -6.170934 40.105267 -18.820955
v -9.882183 0.117908 -17.205523
v -9.757329 40.117714 -17.236845
v -13.090637 0.129696 -14.952174
v -12.965758 40.129486 -14.983499
v -15.797820 0.140369 -12.116198
v -15.672942 40.140163 -12.147502
v -17.899706 0.149513 -8.806552
v -17.774851 40.149311 -8.837876
v -19.315544 0.156803 -5.150433
v -19.190668 40.156601 -5.181756
v -19.990902 0.161934 -1.288357
v -19.866024 40.161728 -1.319680
v -19.899828 0.164719 2.631277
v -19.774952 40.164513 2.599953
v -19.045820 0.165047 6.457827
v -18.920963 40.164833 6.426503
v -17.461714 0.162910 10.044224
v -17.336853 40.162697 10.012920
v -15.208380 0.158386 13.252698
v -15.083502 40.158176 13.221375
v -12.372385 0.151649 15.959903
v -12.247526 40.151440 15.928579
v -9.062759 0.142960 18.061804
v -8.937881 40.142754 18.030481
v -5.406646 0.132668 19.477646
v -5.281788 40.132458 19.446323
v -1.544596 0.121140 20.153009
v -1.419718 40.120934 20.121689
v 2.375025 0.108818 20.061945
v 2.499883 40.108608 20.030621
v 6.201560 0.096210 19.207941
v 6.326417 40.096001 19.176636
v 9.787951 0.083782 17.623829
v 9.912809 40.083569 17.592527
vt 0.369804 0.760868
vt 0.000206 0.760868
vt 0.000206 0.796920
vt 0.369804 0.796920
vt 0.000206 0.831587
vt 0.369804 0.831588
vt 0.000206 0.863537
vt 0.369804 0.863537
vt 0.000206 0.891541
vt 0.369804 0.891541
vt 0.739815 0.629783
vt 0.370217 0.629783
vt 0.370217 0.601779
vt 0.739815 0.601779
vt 0.370217 0.569830
vt 0.739815 0.569830
vt 0.370217 0.535163
vt 0.739815 0.535163
vt 0.370217 0.499110
vt 0.739815 0.499110
vt 0.370217 0.463058
vt 0.739815 0.463058
vt 0.370217 0.428391
vt 0.739815 0.428391
vt 0.370217 0.396441
vt 0.739815 0.396441
vt 0.370217 0.368437
vt 0.739815 0.368437
vt 0.370217 0.999794
vt 0.370217 0.630195
vt 0.398221 0.630195
vt 0.398221 0.999794
vt 0.740228 0.738036
vt 0.740228 0.368437
vt 0.772177 0.368437
vt 0.772177 0.738036
vt 0.806844 0.368437
vt 0.806844 0.738036
vt 0.842897 0.368437
vt 0.842897 0.738036
vt 0.878949 0.368437
vt 0.878949 0.738036
vt 0.913616 0.368437
vt 0.913616 0.738036
vt 0.945566 0.368437
vt 0.945566 0.738036
vt 0.973570 0.368437
vt 0.973570 0.738036
vt 0.369804 0.368437
vt 0.000206 0.368437
vt 0.000206 0.396441
vt 0.369804 0.396441
vt 0.000206 0.428391
vt 0.369804 0.428391
vt 0.000206 0.463058
vt 0.369804 0.463058
vt 0.000206 0.499110
vt 0.369804 0.499110
vt 0.000206 0.535163
vt 0.369804 0.535163
vt 0.000206 0.569830
vt 0.369804 0.569830
vt 0.000206 0.601779
vt 0.369804 0.601779
vt 0.000206 0.629783
vt 0.369804 0.629783
vt 0.369804 0.630196
vt 0.000206 0.630195
vt 0.000206 0.658199
vt 0.369804 0.658199
vt 0.000206 0.690149
vt 0.369804 0.690149
vt 0.534233 0.000206
vt 0.570460 0.000206
vt 0.605991 0.007274
vt 0.639460 0.021137
vt 0.669582 0.041264
vt 0.695198 0.066880
vt 0.715325 0.097002
vt 0.729188 0.130471
vt 0.736256 0.166002
vt 0.736256 0.202229
vt 0.729188 0.237760
vt 0.715325 0.271229
vt 0.695198 0.301351
vt 0.669582 0.326967
vt 0.639460 0.347094
vt 0.605991 0.360957
vt 0.570460 0.368025
vt 0.534233 0.368025
vt 0.498702 0.360957
vt 0.465233 0.347094
vt 0.435111 0.326967
vt 0.409495 0.301351
vt 0.389368 0.271229
vt 0.375505 0.237760
vt 0.368437 0.202229
vt 0.368437 0.166002
vt 0.375505 0.130471
vt 0.389368 0.097002
vt 0.409495 0.066880
vt 0.435111 0.041264
vt 0.465233 0.021137
vt 0.498702 0.007274
vt 0.369804 0.724816
vt 0.000206 0.724816
vt 0.301351 0.041264
vt 0.271229 0.021137
vt 0.237760 0.007274
vt 0.202229 0.000206
vt 0.166002 0.000206
vt 0.130471 0.007274
vt 0.097002 0.021137
vt 0.066880 0.041264
vt 0.041264 0.066880
vt 0.021137 0.097002
vt 0.007274 0.130471
vt 0.000206 0.166002
vt 0.000206 0.202229
vt 0.007274 0.237760
vt 0.021137 0.271229
vt 0.041264 0.301351
vt 0.066880 0.326967
vt 0.097002 0.347094
vt 0.130471 0.360957
vt 0.166002 0.368025
vt 0.202229 0.368025
vt 0.237760 0.360957
vt 0.271229 0.347094
vt 0.301351 0.326967
vt 0.326967 0.301351
vt 0.347094 0.271229
vt 0.360957 0.237760
vt 0.368025 0.202229
vt 0.368025 0.166002
vt 0.360957 0.130471
vt 0.347094 0.097002
vt 0.326967 0.066880
vn 0.723300 -0.001700 0.690500
vn 0.844100 -0.002200 0.536100
vn 0.932500 -0.002600 0.361100
vn 0.985000 -0.002900 0.172300
vn 0.999700 -0.003100 -0.023200
vn 0.976000 -0.003200 -0.217800
vn 0.914700 -0.003200 -0.404000
vn 0.818300 -0.003000 -0.574700
vn 0.690500 -0.002700 -0.723300
vn 0.536100 -0.002300 -0.844100
vn 0.361100 -0.001900 -0.932500
vn 0.172300 -0.001300 -0.985100
vn -0.023200 -0.000700 -0.999700
vn -0.217800 -0.000100 -0.976000
vn -0.404000 0.000500 -0.914700
vn -0.574700 0.001200 -0.818300
vn -0.723300 0.001700 -0.690500
vn -0.844100 0.002200 -0.536100
vn -0.932500 0.002600 -0.361100
vn -0.985000 0.002900 -0.172300
vn -0.999700 0.003100 0.023200
vn -0.976000 0.003200 0.217800
vn -0.914700 0.003200 0.404000
vn -0.818300 0.003000 0.574700
vn -0.690500 0.002700 0.723300
vn -0.536100 0.002300 0.844200
vn -0.361100 0.001900 0.932500
vn -0.172300 0.001300 0.985100
vn 0.023200 0.000700 0.999700
vn 0.217800 0.000100 0.976000
vn -0.003100 -1.000000 0.000800
vn 0.574700 -0.001200 0.818300
vn 0.404000 -0.000500 0.914700
vn 0.003100 1.000000 -0.000800
usemtl Material.001
s 1
f 1/1/1 2/2/1 3/3/1 4/4/1
f 4/4/2 3/3/2 5/5/2 6/6/2
f 6/6/3 5/5/3 7/7/3 8/8/3
f 8/8/4 7/7/4 9/9/4 10/10/4
f 10/11/5 9/12/5 11/13/5 12/14/5
f 12/14/6 11/13/6 13/15/6 14/16/6
f 14/16/7 13/15/7 15/17/7 16/18/7
f 16/18/8 15/17/8 17/19/8 18/20/8
f 18/20/9 17/19/9 19/21/9 20/22/9
f 20/22/10 19/21/10 21/23/10 22/24/10
f 22/24/11 21/23/11 23/25/11 24/26/11
f 24/26/12 23/25/12 25/27/12 26/28/12
f 26/29/13 25/30/13 27/31/13 28/32/13
f 28/33/14 27/34/14 29/35/14 30/36/14
f 30/36/15 29/35/15 31/37/15 32/38/15
f 32/38/16 31/37/16 33/39/16 34/40/16
f 34/40/17 33/39/17 35/41/17 36/42/17
f 36/42/18 35/41/18 37/43/18 38/44/18
f 38/44/19 37/43/19 39/45/19 40/46/19
f 40/46/20 39/45/20 41/47/20 42/48/20
f 42/49/21 41/50/21 43/51/21 44/52/21
f 44/52/22 43/51/22 45/53/22 46/54/22
f 46/54/23 45/53/23 47/55/23 48/56/23
f 48/56/24 47/55/24 49/57/24 50/58/24
f 50/58/25 49/57/25 51/59/25 52/60/25
f 52/60/26 51/59/26 53/61/26 54/62/26
f 54/62/27 53/61/27 55/63/27 56/64/27
f 56/64/28 55/63/28 57/65/28 58/66/28
f 58/67/29 57/68/29 59/69/29 60/70/29
f 60/70/30 59/69/30 61/71/30 62/72/30
f 3/73/31 2/74/31 63/75/31 61/76/31 59/77/31 57/78/31 55/79/31 53/80/31 51/81/31 49/82/31 47/83/31 45/84/31 43/85/31 41/86/31 39/87/31 37/88/31 35/89/31 33/90/31 31/91/31 29/92/31 27/93/31 25/94/31 23/95/31 21/96/31 19/97/31 17/98/31 15/99/31 13/100/31 11/101/31 9/102/31 7/103/31 5/104/31
f 64/105/32 63/106/32 2/2/32 1/1/32
f 62/72/33 61/71/33 63/106/33 64/105/33
f 1/107/34 4/108/34 6/109/34 8/110/34 10/111/34 12/112/34 14/113/34 16/114/34 18/115/34 20/116/34 22/117/34 24/118/34 26/119/34 28/120/34 30/121/34 32/122/34 34/123/34 36/124/34 38/125/34 40/126/34 42/127/34 44/128/34 46/129/34 48/130/34 50/131/34 52/132/34 54/133/34 56/134/34 58/135/34 60/136/34 62/137/34 64/138/34
